<svg width="32" height="32" viewBox="0 0 32 32" fill="none" xmlns="http://www.w3.org/2000/svg">
  <!-- Background circle with gradient -->
  <circle cx="16" cy="16" r="15" fill="url(#gradient)" stroke="url(#borderGradient)" stroke-width="2"/>
  
  <!-- Tech circuit pattern -->
  <path d="M8 12h4v2h-4v-2zm0 4h4v2h-4v-2z" fill="#00f5ff" opacity="0.8"/>
  <path d="M20 12h4v2h-4v-2zm0 4h4v2h-4v-2z" fill="#00f5ff" opacity="0.8"/>
  <path d="M12 8v4h2v-4h-2zm4 0v4h2v-4h-2z" fill="#00f5ff" opacity="0.6"/>
  <path d="M12 20v4h2v-4h-2zm4 20v4h2v-4h-2z" fill="#00f5ff" opacity="0.6"/>
  
  <!-- Central "T" for TechBlog -->
  <path d="M12 14h8v2h-3v6h-2v-6h-3v-2z" fill="#ffffff" stroke="#00f5ff" stroke-width="0.5"/>
  
  <!-- Glowing dots -->
  <circle cx="10" cy="10" r="1" fill="#00f5ff"/>
  <circle cx="22" cy="10" r="1" fill="#8b5cf6"/>
  <circle cx="10" cy="22" r="1" fill="#f472b6"/>
  <circle cx="22" cy="22" r="1" fill="#00f5ff"/>
  
  <!-- Gradient definitions -->
  <defs>
    <linearGradient id="gradient" x1="0%" y1="0%" x2="100%" y2="100%">
      <stop offset="0%" style="stop-color:#1a1a2e;stop-opacity:1" />
      <stop offset="50%" style="stop-color:#16213e;stop-opacity:1" />
      <stop offset="100%" style="stop-color:#0c0c0c;stop-opacity:1" />
    </linearGradient>
    <linearGradient id="borderGradient" x1="0%" y1="0%" x2="100%" y2="100%">
      <stop offset="0%" style="stop-color:#00f5ff;stop-opacity:0.5" />
      <stop offset="50%" style="stop-color:#8b5cf6;stop-opacity:0.5" />
      <stop offset="100%" style="stop-color:#f472b6;stop-opacity:0.5" />
    </linearGradient>
  </defs>
</svg>
